<?xml version="1.0"?>
<svg xmlns:rdf="http://www.w3.org/1999/02/22-rdf-syntax-ns#" xmlns="http://www.w3.org/2000/svg" xmlns:cc="http://creativecommons.org/ns#" xmlns:xlink="http://www.w3.org/1999/xlink" xmlns:dc="http://purl.org/dc/elements/1.1/" xmlns:svg="http://www.w3.org/2000/svg" id="svg2" viewBox="0 0 81.806 205.53" version="1.0">
  <defs id="defs4">
    <linearGradient id="linearGradient2927" y2="539.27" gradientUnits="userSpaceOnUse" x2="247.31" gradientTransform="translate(-175.08 -300.73)" y1="498.13" x1="200.38">
      <stop id="stop6741" offset="0"/>
      <stop id="stop6743" stop-opacity="0" offset="1"/>
    </linearGradient>
  </defs>
  <g id="layer3" transform="translate(-1.2468 -19.171)">
    <g id="g2851">
      <path id="path6737" d="m42.4 208.26c18.443-0.95673-19.712 3.9073-22.038 4.2426-11.793 0.97493 24.959-2.0201 37.724-3.0373 26.829-1.4611-36.004 5.02-39.566 5.5816 1.0854-3.1136 49.18-8.9851 36.186-3.784-20.522 7.1103-16.793 4.9317 2.9729 3.4211 32.493-1.8947-7.0662 3.6567-18.231 5.4335-6.1714-2.0254 56.915-9.5542 27.842-3.2312-1.7967 1.6942-11.268 2.6047 2.4423 0.23081 1.8154-0.31433-3.5852 0.74906-5.3306 1.2132-5.8929 1.567-6.1924 1.9892 0.03024 2.6185 6.1984 0.46827 12.413 0.8133 18.621 1.2157l-8.9504 2.5372c-6.276-0.45518-12.568-0.77239-18.851-1.1824-17.559-1.6894 18.23-10.975 22.353-8.1286-8.0689 1.809-52.926 7.0647-29.014 1.9021 27.922-3.6075 19.484-0.85571 0.37729 0.0141-19.306 1.6484-26.792 2.2494-4.1987-5.089 9.3678-3.0746-45.648 6.7803-16.91-0.058 11.929-1.4871 63.007-6.8722 21.666-0.1219-14.719 1.0589-67.331 5.8169-20.567-2.1852 21.505-3.034 27.484-1.8277 3.668 1.0611l9.7742-2.6537z" fill="url(#linearGradient2927)"/>
      <path id="path4874" d="m48.003 79.516c-20.825-1.841-33.679-0.21-42.776-3.567 5.818-14.799 8.543-16.411 15.283-28.341" transform="translate(-3.0305 .21677)" stroke="#000" stroke-width="1.9" fill="none"/>
      <path id="path4876" d="m48.64 78.974c-0.45926 1.758 3.542 0.48395 3.8148 1.433 4.3135 15.008 3.15 26.118 3.15 26.118 0.31677 7.1842 0.38975 27.475 0.38975 27.475" transform="translate(-3.0305 .21677)" stroke="#000" stroke-width="1.9" fill="none"/>
      <path id="path4878" d="m45.106 138.71c-1.8483 65.272-5.8126 61.657-5.26 63.196 0.5398 1.5032 1.0102 3.5355 1.0102 3.5355" transform="translate(-3.0305 .21677)" stroke="#000" stroke-width="1.9" fill="none"/>
      <path id="path4880" d="m48.785 139.73c0.11298 23.613 1.1816 56.125 0.17977 62.03-0.26714 1.5747 11.619 1.7323 11.619 1.7323" transform="translate(-3.0305 .21677)" stroke="#000" stroke-width="1.9" fill="none"/>
      <path id="path4882" d="m39.341 202.41c-2.444 2.4847-8.1626 2.4836-5.5558 4.0406 5.3668 3.2055 4.9739 6.7943 8.5863 3.0305 3.9322-4.0971 13.132-0.50508-3.0305-7.0711z" fill-rule="evenodd" transform="translate(-3.0305 .21677)" stroke="#000" stroke-width="1px"/>
      <path id="path5757" d="m52.341 199.84c-2.444 2.4847-5.6626 1.0551-3.0558 2.612 5.3668 3.2055 12.831 6.08 16.443 2.3162 3.9322-4.0971 2.7748 1.6378-13.388-4.9282z" fill-rule="evenodd" transform="translate(-3.0305 .21677)" stroke="#000" stroke-width="1px"/>
      <path id="path5759" d="m23.974 43.347c-3.6434 3.4115-3.7636 7.7607-4.116 5.2686-0.7254-5.1309-8.1489-2.5856-2.6717-7.6529 5.9622-5.516 11.924-18.21 6.7876 2.3843z" fill-rule="evenodd" transform="translate(-3.0305 .21677)" stroke="#000" stroke-width="1px"/>
      <path id="path5761" d="m54.247 136.82c2.9388-1.9906 1.6618-11.21 1.9414-7.9005 0.57572 6.8132 7.0709 10.315 2.6531 13.231-4.809 3.1747-5.3663 14.318-4.5945-5.3306z" fill-rule="evenodd" transform="translate(-3.0305 .21677)" stroke="#000" stroke-width="1px"/>
      <path id="path3077" d="m42.275 70.777c-0.3646 2.4319 0.09441 3.4249 1.2369 6.4597 7.1402 18.967 5.7548 68.197 1.3775 66.027-6.733-3.3382 3.5542-50.359-1.4688-66.018-0.63375-1.9758-1.37-4.5525-1.1456-6.4691z" stroke="#000" stroke-width="3" fill="none"/>
      <path id="path3075" d="m444.03 362.03a12.857 25 0 1 1 -0.12053 0.22395" transform="matrix(1.0721 -.16942 .13758 .99168 -498.94 -255.05)" stroke="#000" stroke-linecap="round" stroke-width="2.3534" fill="none"/>
      <path id="path4833" d="m293.26 368.63a3.5714 4.6429 0 1 1 -0.0335 0.0416" transform="matrix(.96577 -.25942 .25942 .96577 -347.24 -242.63)" stroke="#000" stroke-linecap="round" stroke-width="2.075" fill="none"/>
      <path id="path4835" d="m293.26 368.63a3.5714 4.6429 0 1 1 -0.0335 0.0416" transform="matrix(.96577 -.25942 .25942 .96577 -335.99 -245.65)" stroke="#000" stroke-linecap="round" stroke-width="2.075" fill="none"/>
      <path id="path4837" d="m47.494 59.327c-2.785-0.367-10.489 0.865-11.797 1.691" stroke="#000" stroke-width="1.25" fill="none"/>
    </g>
  </g>
  <metadata>
    <rdf:RDF>
      <cc:Work>
        <dc:format>image/svg+xml</dc:format>
        <dc:type rdf:resource="http://purl.org/dc/dcmitype/StillImage"/>
        <cc:license rdf:resource="http://creativecommons.org/licenses/publicdomain/"/>
        <dc:publisher>
          <cc:Agent rdf:about="http://openclipart.org/">
            <dc:title>Openclipart</dc:title>
          </cc:Agent>
        </dc:publisher>
        <dc:title>Al military salute</dc:title>
        <dc:date>2010-10-19T06:12:32</dc:date>
        <dc:description>clip art, clipart, man, military, salute, </dc:description>
        <dc:source>http://openclipart.org/detail/91477/al-military-salute-by-cybergedeon</dc:source>
        <dc:creator>
          <cc:Agent>
            <dc:title>dominiquechappard</dc:title>
          </cc:Agent>
        </dc:creator>
        <dc:subject>
          <rdf:Bag>
            <rdf:li>clip art</rdf:li>
            <rdf:li>clipart</rdf:li>
            <rdf:li>man</rdf:li>
            <rdf:li>military</rdf:li>
            <rdf:li>salute</rdf:li>
          </rdf:Bag>
        </dc:subject>
      </cc:Work>
      <cc:License rdf:about="http://creativecommons.org/licenses/publicdomain/">
        <cc:permits rdf:resource="http://creativecommons.org/ns#Reproduction"/>
        <cc:permits rdf:resource="http://creativecommons.org/ns#Distribution"/>
        <cc:permits rdf:resource="http://creativecommons.org/ns#DerivativeWorks"/>
      </cc:License>
    </rdf:RDF>
  </metadata>
</svg>
